<svg width="12" height="96" viewBox="0 0 12 96" fill="none" xmlns="http://www.w3.org/2000/svg">
<path d="M1.03882 9.08811C1.03882 9.36425 0.814958 9.58811 0.538816 9.5881C0.262673 9.5881 0.0388168 9.36424 0.0388184 9.0881L0.538818 9.0881L1.03882 9.08811ZM0.0388661 0.500012C0.0388676 0.22387 0.262726 1.27609e-05 0.538869 1.38931e-05C0.815011 1.50253e-05 1.03887 0.223874 1.03887 0.500016L0.538866 0.500014L0.0388661 0.500012ZM0.538818 9.0881L0.0388184 9.0881L0.0388661 0.500012L0.538866 0.500014L1.03887 0.500016L1.03882 9.08811L0.538818 9.0881Z" fill="#66625D"/>
<path d="M0.519287 94.9695L0.519287 87.067" stroke="#66625D" stroke-linecap="round" stroke-linejoin="round"/>
<path d="M10.4972 86.6864L10.4972 54.0516" stroke="#66625D" stroke-linecap="round" stroke-linejoin="round"/>
<path d="M10.4972 42.0278L10.4972 9.39292" stroke="#66625D" stroke-linecap="round" stroke-linejoin="round"/>
<path d="M4.97376 48.1964C4.77872 48.3918 4.40806 48.48 4.14587 48.3934C3.88368 48.3067 3.82925 48.078 4.02429 47.8825L4.49902 48.0394L4.97376 48.1964ZM10.0228 41.8703C10.2179 41.6748 10.5885 41.5866 10.8507 41.6733C11.1129 41.76 11.1673 41.9887 10.9723 42.1842L10.4976 42.0272L10.0228 41.8703ZM4.49902 48.0394L4.02429 47.8825L10.0228 41.8703L10.4976 42.0272L10.9723 42.1842L4.97376 48.1964L4.49902 48.0394Z" fill="#66625D"/>
<path d="M4.02429 48.1964C3.82925 48.0009 3.88368 47.7721 4.14587 47.6855C4.40806 47.5988 4.77872 47.687 4.97376 47.8825L4.49902 48.0394L4.02429 48.1964ZM10.9723 53.8947C11.1673 54.0902 11.1129 54.3189 10.8507 54.4056C10.5885 54.4922 10.2179 54.404 10.0228 54.2085L10.4976 54.0516L10.9723 53.8947ZM4.49902 48.0394L4.97376 47.8825L10.9723 53.8947L10.4976 54.0516L10.0228 54.2085L4.02429 48.1964L4.49902 48.0394Z" fill="#66625D"/>
<path d="M10.4968 8.89368C10.773 8.89368 10.9968 9.11754 10.9968 9.39368C10.9968 9.66982 10.773 9.89368 10.4968 9.89368L10.4968 9.39368L10.4968 8.89368ZM0.500006 9.89364C0.223864 9.89363 7.6992e-06 9.66978 9.20873e-06 9.39363C1.07183e-05 9.11749 0.22387 8.89363 0.500012 8.89364L0.500009 9.39364L0.500006 9.89364ZM10.4968 9.39368L10.4968 9.89368L0.500006 9.89364L0.500009 9.39364L0.500012 8.89364L10.4968 8.89368L10.4968 9.39368Z" fill="#66625D"/>
<path d="M0.500244 86.6866H10.4971" stroke="#66625D" stroke-linecap="round" stroke-linejoin="round"/>
</svg>
