<svg width="30" height="30" viewBox="0 0 30 30" fill="none" xmlns="http://www.w3.org/2000/svg">
<g clip-path="url(#clip0_81_198)">
<path d="M1.52478 7.48045C1.52478 6.68689 1.88566 5.92584 2.52803 5.36471C3.1704 4.80358 4.04164 4.48834 4.95009 4.48834H25.502C26.4104 4.48834 27.2816 4.80358 27.924 5.36471C28.5664 5.92584 28.9273 6.68689 28.9273 7.48045V25.4331C28.9273 26.2267 28.5664 26.9877 27.924 27.5488C27.2816 28.11 26.4104 28.4252 25.502 28.4252H4.95009C4.04164 28.4252 3.1704 28.11 2.52803 27.5488C1.88566 26.9877 1.52478 26.2267 1.52478 25.4331V7.48045Z" stroke="#23211D" stroke-width="2" stroke-linecap="round" stroke-linejoin="round"/>
<path d="M22.0083 1.30093V6.50498" stroke="#23211D" stroke-width="2" stroke-linecap="round" stroke-linejoin="round"/>
<path d="M8.4436 1.30093V6.50498" stroke="#23211D" stroke-width="2" stroke-linecap="round" stroke-linejoin="round"/>
<path d="M7.80432 16.9119H8.94637" stroke="#23211D" stroke-width="2" stroke-linecap="round" stroke-linejoin="round"/>
<path d="M14.655 16.9119H15.7971" stroke="#23211D" stroke-width="2" stroke-linecap="round" stroke-linejoin="round"/>
<path d="M21.5057 16.9119H22.6478" stroke="#23211D" stroke-width="2" stroke-linecap="round" stroke-linejoin="round"/>
<path d="M7.80432 22.1156H8.94637" stroke="#23211D" stroke-width="2" stroke-linecap="round" stroke-linejoin="round"/>
<path d="M14.655 22.1156H15.7971" stroke="#23211D" stroke-width="2" stroke-linecap="round" stroke-linejoin="round"/>
<path d="M21.5057 22.1156H22.6478" stroke="#23211D" stroke-width="2" stroke-linecap="round" stroke-linejoin="round"/>
<path d="M1.52478 12.1636H28.9273" stroke="#23211D" stroke-width="2" stroke-linecap="round" stroke-linejoin="round"/>
</g>
<defs>
<clipPath id="clip0_81_198">
<rect width="29.9211" height="29.9211" fill="white"/>
</clipPath>
</defs>
</svg>
