<svg width="130" height="130" viewBox="0 0 130 130" fill="none" xmlns="http://www.w3.org/2000/svg">
<circle cx="65" cy="65" r="65" fill="#D9D9D9"/>
<g clip-path="url(#clip0_282_4)">
<path d="M107.63 81.56V71.53H109.3H110.98L111.02 71.98L111.06 72.42L111.57 72.04C112.4 71.41 113.45 71.19 115.22 71.26C116.51 71.3 116.9 71.38 117.61 71.7C119.24 72.45 120.42 73.94 121.04 75.99C121.42 77.24 121.42 80.9 121.04 82.14C120.45 84.09 119.22 85.7 117.82 86.39C116.06 87.22 113.56 87.24 111.93 86.39L110.99 85.89V88.75V91.59H109.31H107.63V81.56ZM115.7 83.58C117.19 82.82 117.96 81.12 117.85 78.79C117.72 75.93 116.18 74.13 114.06 74.34C112.05 74.53 110.88 76.55 111.03 79.51C111.15 81.59 111.85 82.91 113.23 83.6C114.2 84.08 114.71 84.08 115.71 83.59L115.7 83.58Z" fill="#23211D"/>
<path d="M11.09 87.49V86.48L9.96 86.44L8.82 86.4L8.78 78.17L8.75 69.92H31.46H54.17V78.2V86.48H53.22H52.27V87.51V88.54H47.95H43.63V87.51V86.48H42.53H41.43V87.51V88.54H37.11H32.79V87.51V86.48H31.54H30.29V87.51V88.54H25.97H21.65V87.51V86.48H20.7H19.75V87.51V88.54H15.43H11.11V87.51L11.09 87.49ZM18.41 84.87C17.88 83.83 17.41 83.61 15.48 83.57C13.91 83.53 13.77 83.54 13.28 83.86C12.8 84.18 12.11 85.05 12.11 85.31C12.11 85.38 13.59 85.44 15.41 85.44H18.71L18.42 84.87H18.41ZM29.25 85.31C29.25 85.05 28.56 84.18 28.09 83.87C27.65 83.58 27.42 83.53 26.04 83.53C24.18 83.53 23.54 83.81 22.98 84.82L22.64 85.44H25.94C27.76 85.44 29.25 85.38 29.25 85.31ZM40.06 84.83C39.44 83.73 39.15 83.61 37.09 83.61C35.02 83.61 34.73 83.73 34.12 84.83L33.78 85.45H37.09H40.4L40.06 84.83ZM51.08 85.31C51.08 85.09 50.42 84.23 50.01 83.92C49.66 83.66 49.34 83.6 47.96 83.57C46.44 83.53 46.28 83.54 45.81 83.86C45.33 84.18 44.64 85.05 44.64 85.31C44.64 85.38 46.09 85.44 47.86 85.44C49.63 85.44 51.08 85.38 51.08 85.31Z" fill="#23211D"/>
<path d="M60.31 86.79C59.06 86.47 58.22 85.94 57.26 84.94C56.41 84.03 55.91 83.08 55.53 81.63C55.18 80.27 55.31 77.09 55.76 75.81C56.43 73.88 57.64 72.51 59.36 71.71C60.18 71.31 60.33 71.3 62.42 71.3C64.57 71.3 64.63 71.31 65.58 71.75C67.98 72.89 69.36 75.47 69.37 78.81V80.01H64.08H58.79L58.89 80.49C58.93 80.74 59.18 81.37 59.42 81.88C60.12 83.34 61.63 84.27 62.91 84.03C64.18 83.8 65.21 82.89 65.66 81.61L65.92 80.88H67.59H69.25L69.19 81.8C69.04 84.14 67.14 86.24 64.68 86.8C63.38 87.09 61.5 87.08 60.29 86.77L60.31 86.79ZM65.48 76.58C65.16 75.61 64.12 74.53 63.24 74.24C61.69 73.73 60.03 74.74 59.21 76.7L58.99 77.24H62.34H65.71L65.48 76.58Z" fill="#23211D"/>
<path d="M99.06 86.89C96.2 86.42 94.58 84.69 94.34 81.89L94.25 80.89H95.95H97.63L97.73 81.46C98.13 83.85 101.16 84.93 103.19 83.42C103.44 83.23 103.76 82.88 103.88 82.64C104.09 82.24 104.07 82.2 103.73 81.79C103.25 81.22 102.59 80.97 100.57 80.59C95.78 79.7 94.51 78.52 94.77 75.32C94.81 74.76 94.99 74.06 95.15 73.75C95.56 72.93 96.59 72.04 97.6 71.64C98.39 71.32 98.67 71.29 100.88 71.29C103.09 71.29 103.37 71.32 104.18 71.64C105.91 72.34 106.89 73.72 107.12 75.8L107.22 76.63H105.45H103.69L103.6 76.16C103.44 75.33 102.97 74.74 102.15 74.36C100.98 73.8 99.72 73.92 98.82 74.67C98.15 75.26 98.01 75.56 98.31 76C98.65 76.51 99.6 76.89 101.58 77.3C106.4 78.28 107.47 79.15 107.47 82.05C107.47 84.06 106.74 85.35 105.1 86.17C103.55 86.95 101.16 87.22 99.05 86.87L99.06 86.89Z" fill="#23211D"/>
<path d="M69.54 79.0699V71.5299H71.15H72.76V72.0399V72.5499L73.36 72.1299C74.37 71.3999 75.21 71.1899 77.05 71.2699C78.49 71.3099 78.79 71.3699 79.47 71.7199C79.89 71.9399 80.38 72.3399 80.55 72.6099L80.87 73.0899L81.35 72.5899C81.63 72.3299 82.18 71.9299 82.61 71.7099C83.27 71.3699 83.61 71.3099 85 71.2599C86.95 71.1899 87.86 71.4199 88.75 72.2299C90.08 73.4299 90.19 74.0499 90.19 80.9799V86.6199H88.51H86.83V81.8699C86.83 77.0099 86.73 75.8299 86.27 75.1899C85.87 74.6299 85.01 74.2699 84.41 74.3699C83.62 74.5199 82.74 75.3099 82.23 76.2899L81.78 77.1699L81.74 81.8999L81.7 86.6199H80.03H78.37L78.31 81.5399L78.27 76.4399L77.9 75.7199C77.43 74.7799 76.89 74.3899 76.08 74.3899C75.27 74.3899 74.37 74.9799 73.79 75.8799C73.04 77.0499 72.91 78.0799 72.91 82.5699V86.6099H71.23H69.55V79.0699H69.54Z" fill="#23211D"/>
<path d="M18.74 64.42C18.3 64.32 17.41 63.97 16.75 63.63C14.61 62.58 13.04 60.54 12.31 57.9C12.1 57.14 12.05 56.38 12.05 54.09C12.05 51.51 12.08 51.13 12.39 50.13C13.46 46.73 15.61 44.58 18.72 43.82C19.95 43.51 23.41 43.56 24.51 43.89C25.93 44.31 27.28 45.11 28.14 46.01C29.39 47.31 30.29 49.36 30.29 50.89V51.61L28.15 51.57L26.03 51.53L25.71 50.56C25.12 48.83 24.3 47.95 22.77 47.44C21.92 47.15 21.33 47.15 20.4 47.43C18.66 47.94 17.57 49.13 16.87 51.24C16.56 52.21 16.49 52.69 16.49 54.02C16.46 57.26 17.56 59.45 19.7 60.47C21.9 61.52 24.4 60.57 25.5 58.27C25.72 57.79 25.91 57.26 25.91 57.1C25.91 56.94 25.95 56.66 26 56.48C26.09 56.14 26.13 56.14 28.27 56.14H30.45V57.02C30.45 58.7 29.44 60.98 28.08 62.31C27.11 63.26 25.6 64.1 24.29 64.42C23.13 64.68 19.87 64.7 18.77 64.42H18.74Z" fill="#23211D"/>
<path d="M59.43 64.42C56.88 63.79 54.93 62.24 53.78 59.88C53 58.28 52.7 56.72 52.7 54.24C52.7 48.73 54.84 45.26 59 43.96C60.45 43.52 63.7 43.48 65.08 43.9C67.42 44.6 69.14 46.07 70.21 48.28C71.02 49.96 71.31 51.39 71.31 53.58V55.26H64.21H57.12L57.19 55.74C57.5 57.42 58.1 58.71 59.04 59.61C59.95 60.49 60.9 60.88 62.17 60.88C63.08 60.89 63.34 60.84 64.22 60.38C65.64 59.65 66.31 58.7 66.86 56.62C66.9 56.47 67.48 56.43 69.12 56.43H71.32V57.13C71.32 58.45 70.6 60.28 69.56 61.58C68.45 62.99 66.98 63.91 65.09 64.41C64.01 64.69 60.61 64.69 59.45 64.41L59.43 64.42ZM66.58 51.06C66.16 49.51 65.29 48.39 64 47.76C63.22 47.38 62.84 47.28 62.14 47.28C59.99 47.28 58.18 48.8 57.45 51.28L57.36 51.6H62.05H66.72L66.57 51.06H66.58Z" fill="#23211D"/>
<path d="M105.52 64.48C102.87 63.85 100.57 61.48 99.79 58.56C99.13 56.07 99.17 51.94 99.91 49.45C101.11 45.3 104.86 43.02 109.3 43.69C110.76 43.91 111.82 44.36 112.67 45.15L113.34 45.78V44.87V43.98H115.39H117.44V54.09V64.2H115.39H113.34V63.38V62.56L112.72 63.09C112 63.72 111.12 64.16 110.07 64.44C109.21 64.67 106.42 64.69 105.51 64.48H105.52ZM110.02 60.51C110.97 60.1 112.2 58.74 112.61 57.65C113.61 55 113.55 52.27 112.46 50.03C111.57 48.23 109.71 47.04 108.09 47.28C105.37 47.68 103.75 50.21 103.75 54.09C103.76 57.69 105.24 60.21 107.72 60.81C108.41 60.99 109.1 60.88 110.01 60.5L110.02 60.51Z" fill="#23211D"/>
<path d="M30.58 54.09V43.98H32.7H34.82V54.09V64.2H32.7H30.58V54.09Z" fill="#23211D"/>
<path d="M35.85 54.09V43.98H37.97H40.09V44.92V45.87L40.65 45.37C41.38 44.7 42.63 44.05 43.61 43.83C44.11 43.73 45.16 43.67 46.32 43.71C48.02 43.75 48.31 43.8 49.07 44.15C49.54 44.37 50.1 44.69 50.32 44.85C51.01 45.39 51.8 46.61 52.14 47.6C52.46 48.55 52.46 48.77 52.52 56.39L52.56 64.18H50.44H48.3V57.93C48.3 51.41 48.21 50.24 47.68 49.18C47.28 48.37 47.01 48.1 46.32 47.74C44.61 46.86 42.31 47.92 41.21 50.08C40.39 51.71 40.35 52.06 40.29 58.36L40.23 64.18H38.03H35.85V54.07V54.09Z" fill="#23211D"/>
<path d="M71.74 54.09V43.98H73.79H75.84V44.87V45.76L76.44 45.22C76.78 44.93 77.48 44.47 78.02 44.21C78.97 43.76 79.02 43.76 81.26 43.76C83.53 43.76 83.53 43.76 84.51 44.24C85.42 44.68 85.95 45.15 86.56 46.03L86.82 46.4L87.29 45.87C88.14 44.95 89.15 44.29 90.21 43.97C91.09 43.71 91.5 43.66 93.17 43.72C94.99 43.78 95.16 43.81 96.09 44.25C97.57 44.97 98.42 46.08 98.92 48.01C99.11 48.74 99.14 50.1 99.14 56.54V64.2H97.02H94.9V57.78C94.9 53.8 94.84 51.03 94.74 50.49C94.29 47.97 92.5 46.86 90.52 47.87C89.27 48.49 88.38 49.96 87.96 52.07C87.77 52.98 87.73 54.28 87.73 58.71V64.2H85.62H83.51L83.45 57.43C83.38 50.12 83.35 49.83 82.56 48.66C82.11 47.99 81.11 47.46 80.32 47.47C79 47.48 77.62 48.54 76.97 50.05C76.16 51.88 76.12 52.29 76.06 58.46L75.99 64.2H73.88H71.77V54.09H71.74Z" fill="#23211D"/>
<path d="M30.61 40.73L30.65 38.49L32.74 38.45L34.82 38.41V40.7V42.97H32.7H30.56L30.6 40.74L30.61 40.73Z" fill="#23211D"/>
</g>
<defs>
<clipPath id="clip0_282_4">
<rect width="114" height="54" fill="white" transform="translate(8 38)"/>
</clipPath>
</defs>
</svg>
