<svg width="114" height="54" viewBox="0 0 114 54" fill="none" xmlns="http://www.w3.org/2000/svg">
<g clip-path="url(#clip0_2_34)">
<path d="M99.63 43.56V33.53H101.3H102.98L103.02 33.98L103.06 34.42L103.57 34.04C104.4 33.41 105.45 33.19 107.22 33.26C108.51 33.3 108.9 33.38 109.61 33.7C111.24 34.45 112.42 35.94 113.04 37.99C113.42 39.24 113.42 42.9 113.04 44.14C112.45 46.09 111.22 47.7 109.82 48.39C108.06 49.22 105.56 49.24 103.93 48.39L102.99 47.89V50.75V53.59H101.31H99.63V43.56ZM107.7 45.58C109.19 44.82 109.96 43.12 109.85 40.79C109.72 37.93 108.18 36.13 106.06 36.34C104.05 36.53 102.88 38.55 103.03 41.51C103.15 43.59 103.85 44.91 105.23 45.6C106.2 46.08 106.71 46.08 107.71 45.59L107.7 45.58Z" fill="#23211D"/>
<path d="M3.09 49.49V48.48L1.96 48.44L0.82 48.4L0.780001 40.17L0.75 31.92H23.46H46.17V40.2V48.48H45.22H44.27V49.51V50.54H39.95H35.63V49.51V48.48H34.53H33.43V49.51V50.54H29.11H24.79V49.51V48.48H23.54H22.29V49.51V50.54H17.97H13.65V49.51V48.48H12.7H11.75V49.51V50.54H7.43H3.11V49.51L3.09 49.49ZM10.41 46.87C9.88 45.83 9.41 45.61 7.48 45.57C5.91 45.53 5.77 45.54 5.28 45.86C4.8 46.18 4.11 47.05 4.11 47.31C4.11 47.38 5.59 47.44 7.41 47.44H10.71L10.42 46.87H10.41ZM21.25 47.31C21.25 47.05 20.56 46.18 20.09 45.87C19.65 45.58 19.42 45.53 18.04 45.53C16.18 45.53 15.54 45.81 14.98 46.82L14.64 47.44H17.94C19.76 47.44 21.25 47.38 21.25 47.31ZM32.06 46.83C31.44 45.73 31.15 45.61 29.09 45.61C27.02 45.61 26.73 45.73 26.12 46.83L25.78 47.45H29.09H32.4L32.06 46.83ZM43.08 47.31C43.08 47.09 42.42 46.23 42.01 45.92C41.66 45.66 41.34 45.6 39.96 45.57C38.44 45.53 38.28 45.54 37.81 45.86C37.33 46.18 36.64 47.05 36.64 47.31C36.64 47.38 38.09 47.44 39.86 47.44C41.63 47.44 43.08 47.38 43.08 47.31Z" fill="#23211D"/>
<path d="M52.31 48.79C51.06 48.47 50.22 47.94 49.26 46.94C48.41 46.03 47.91 45.08 47.53 43.63C47.18 42.27 47.31 39.09 47.76 37.81C48.43 35.88 49.64 34.51 51.36 33.71C52.18 33.31 52.33 33.3 54.42 33.3C56.57 33.3 56.63 33.31 57.58 33.75C59.98 34.89 61.36 37.47 61.37 40.81V42.01H56.08H50.79L50.89 42.49C50.93 42.74 51.18 43.37 51.42 43.88C52.12 45.34 53.63 46.27 54.91 46.03C56.18 45.8 57.21 44.89 57.66 43.61L57.92 42.88H59.59H61.25L61.19 43.8C61.04 46.14 59.14 48.24 56.68 48.8C55.38 49.09 53.5 49.08 52.29 48.77L52.31 48.79ZM57.48 38.58C57.16 37.61 56.12 36.53 55.24 36.24C53.69 35.73 52.03 36.74 51.21 38.7L50.99 39.24H54.34H57.71L57.48 38.58Z" fill="#23211D"/>
<path d="M91.06 48.89C88.2 48.42 86.58 46.69 86.34 43.89L86.25 42.89H87.95H89.63L89.73 43.46C90.13 45.85 93.16 46.93 95.19 45.42C95.44 45.23 95.76 44.88 95.88 44.64C96.09 44.24 96.07 44.2 95.73 43.79C95.25 43.22 94.59 42.97 92.57 42.59C87.78 41.7 86.51 40.52 86.77 37.32C86.81 36.76 86.99 36.06 87.15 35.75C87.56 34.93 88.59 34.04 89.6 33.64C90.39 33.32 90.67 33.29 92.88 33.29C95.09 33.29 95.37 33.32 96.18 33.64C97.91 34.34 98.89 35.72 99.12 37.8L99.22 38.63H97.45H95.69L95.6 38.16C95.44 37.33 94.97 36.74 94.15 36.36C92.98 35.8 91.72 35.92 90.82 36.67C90.15 37.26 90.01 37.56 90.31 38C90.65 38.51 91.6 38.89 93.58 39.3C98.4 40.28 99.47 41.15 99.47 44.05C99.47 46.06 98.74 47.35 97.1 48.17C95.55 48.95 93.16 49.22 91.05 48.87L91.06 48.89Z" fill="#23211D"/>
<path d="M61.54 41.0699V33.5299H63.15H64.76V34.0399V34.5499L65.36 34.1299C66.37 33.3999 67.21 33.1899 69.05 33.2699C70.49 33.3099 70.79 33.3699 71.47 33.7199C71.89 33.9399 72.38 34.3399 72.55 34.6099L72.87 35.0899L73.35 34.5899C73.63 34.3299 74.18 33.9299 74.61 33.7099C75.27 33.3699 75.61 33.3099 77 33.2599C78.95 33.1899 79.86 33.4199 80.75 34.2299C82.08 35.4299 82.19 36.0499 82.19 42.9799V48.6199H80.51H78.83V43.8699C78.83 39.0099 78.73 37.8299 78.27 37.1899C77.87 36.6299 77.01 36.2699 76.41 36.3699C75.62 36.5199 74.74 37.3099 74.23 38.2899L73.78 39.1699L73.74 43.8999L73.7 48.6199H72.03H70.37L70.31 43.5399L70.27 38.4399L69.9 37.7199C69.43 36.7799 68.89 36.3899 68.08 36.3899C67.27 36.3899 66.37 36.9799 65.79 37.8799C65.04 39.0499 64.91 40.0799 64.91 44.5699V48.6099H63.23H61.55V41.0699H61.54Z" fill="#23211D"/>
<path d="M10.74 26.42C10.3 26.32 9.40999 25.97 8.74999 25.63C6.60999 24.58 5.03999 22.54 4.30999 19.9C4.09999 19.14 4.04999 18.38 4.04999 16.09C4.04999 13.51 4.07999 13.13 4.38999 12.13C5.45999 8.72996 7.60999 6.57996 10.72 5.81996C11.95 5.50996 15.41 5.55996 16.51 5.88996C17.93 6.30996 19.28 7.10995 20.14 8.00995C21.39 9.30995 22.29 11.36 22.29 12.89V13.61L20.15 13.57L18.03 13.53L17.71 12.56C17.12 10.83 16.3 9.94995 14.77 9.43995C13.92 9.14995 13.33 9.14996 12.4 9.42996C10.66 9.93996 9.56999 11.13 8.86999 13.24C8.55999 14.21 8.48999 14.69 8.48999 16.02C8.45999 19.26 9.55999 21.45 11.7 22.47C13.9 23.52 16.4 22.57 17.5 20.27C17.72 19.79 17.91 19.26 17.91 19.1C17.91 18.94 17.95 18.66 18 18.48C18.09 18.14 18.13 18.14 20.27 18.14H22.45V19.02C22.45 20.7 21.44 22.98 20.08 24.31C19.11 25.26 17.6 26.1 16.29 26.42C15.13 26.68 11.87 26.7 10.77 26.42H10.74Z" fill="#23211D"/>
<path d="M51.43 26.42C48.88 25.79 46.93 24.24 45.78 21.88C45 20.28 44.7 18.72 44.7 16.24C44.7 10.73 46.84 7.25997 51 5.95997C52.45 5.51997 55.7 5.47997 57.08 5.89997C59.42 6.59997 61.14 8.06997 62.21 10.28C63.02 11.96 63.31 13.39 63.31 15.58V17.26H56.21H49.12L49.19 17.74C49.5 19.42 50.1 20.71 51.04 21.61C51.95 22.49 52.9 22.88 54.17 22.88C55.08 22.89 55.34 22.84 56.22 22.38C57.64 21.65 58.31 20.7 58.86 18.62C58.9 18.47 59.48 18.43 61.12 18.43H63.32V19.13C63.32 20.45 62.6 22.28 61.56 23.58C60.45 24.99 58.98 25.91 57.09 26.41C56.01 26.69 52.61 26.69 51.45 26.41L51.43 26.42ZM58.58 13.06C58.16 11.51 57.29 10.39 56 9.75997C55.22 9.37997 54.84 9.27997 54.14 9.27997C51.99 9.27997 50.18 10.8 49.45 13.28L49.36 13.6H54.05H58.72L58.57 13.06H58.58Z" fill="#23211D"/>
<path d="M97.52 26.48C94.87 25.85 92.57 23.48 91.79 20.56C91.13 18.07 91.17 13.94 91.91 11.45C93.11 7.29998 96.86 5.01998 101.3 5.68998C102.76 5.90998 103.82 6.35998 104.67 7.14998L105.34 7.77998V6.86998V5.97998H107.39H109.44V16.09V26.2H107.39H105.34V25.38V24.56L104.72 25.09C104 25.72 103.12 26.16 102.07 26.44C101.21 26.67 98.42 26.69 97.51 26.48H97.52ZM102.02 22.51C102.97 22.1 104.2 20.74 104.61 19.65C105.61 17 105.55 14.27 104.46 12.03C103.57 10.23 101.71 9.03998 100.09 9.27998C97.37 9.67998 95.75 12.21 95.75 16.09C95.76 19.69 97.24 22.21 99.72 22.81C100.41 22.99 101.1 22.88 102.01 22.5L102.02 22.51Z" fill="#23211D"/>
<path d="M22.58 16.09V5.97998H24.7H26.82V16.09V26.2H24.7H22.58V16.09Z" fill="#23211D"/>
<path d="M27.85 16.09V5.97998H29.97H32.09V6.91998V7.86998L32.65 7.36998C33.38 6.69998 34.63 6.04998 35.61 5.82998C36.11 5.72998 37.16 5.66998 38.32 5.70998C40.02 5.74998 40.31 5.79998 41.07 6.14998C41.54 6.36998 42.1 6.68998 42.32 6.84998C43.01 7.38998 43.8 8.60998 44.14 9.59998C44.46 10.55 44.46 10.77 44.52 18.39L44.56 26.18H42.44H40.3V19.93C40.3 13.41 40.21 12.24 39.68 11.18C39.28 10.37 39.01 10.1 38.32 9.73998C36.61 8.85998 34.31 9.91998 33.21 12.08C32.39 13.71 32.35 14.06 32.29 20.36L32.23 26.18H30.03H27.85V16.07V16.09Z" fill="#23211D"/>
<path d="M63.74 16.09V5.97996H65.79H67.84V6.86996V7.75996L68.44 7.21996C68.78 6.92996 69.48 6.46996 70.02 6.20996C70.97 5.75996 71.02 5.75996 73.26 5.75996C75.53 5.75996 75.53 5.75997 76.51 6.23997C77.42 6.67997 77.95 7.14996 78.56 8.02996L78.82 8.39996L79.29 7.86996C80.14 6.94996 81.15 6.28996 82.21 5.96996C83.09 5.70996 83.5 5.65996 85.17 5.71996C86.99 5.77996 87.16 5.80996 88.09 6.24996C89.57 6.96996 90.42 8.07996 90.92 10.01C91.11 10.74 91.14 12.1 91.14 18.54V26.2H89.02H86.9V19.78C86.9 15.8 86.84 13.03 86.74 12.49C86.29 9.96996 84.5 8.85996 82.52 9.86996C81.27 10.49 80.38 11.96 79.96 14.07C79.77 14.98 79.73 16.28 79.73 20.71V26.2H77.62H75.51L75.45 19.43C75.38 12.12 75.35 11.83 74.56 10.66C74.11 9.98996 73.11 9.45996 72.32 9.46996C71 9.47996 69.62 10.54 68.97 12.05C68.16 13.88 68.12 14.29 68.06 20.46L67.99 26.2H65.88H63.77V16.09H63.74Z" fill="#23211D"/>
<path d="M22.61 2.72997L22.65 0.489975L24.74 0.449974L26.82 0.409973V2.69997V4.96997H24.7H22.56L22.6 2.73997L22.61 2.72997Z" fill="#23211D"/>
</g>
<defs>
<clipPath id="clip0_2_34">
<rect width="114" height="54" fill="white"/>
</clipPath>
</defs>
</svg>
