<?xml version="1.0" encoding="utf-8"?>
<!DOCTYPE svg PUBLIC "-//W3C//DTD SVG 1.0//EN" "http://www.w3.org/TR/2001/REC-SVG-20010904/DTD/svg10.dtd">
<svg version="1.0" xmlns="http://www.w3.org/2000/svg" width="150px" height="150px" viewBox="0 0 150 150" preserveAspectRatio="xMidYMid meet">
 <g fill="#000000">
  <path d="M117.63 94.56 l0 -10.03 1.67 0 1.68 0 0.04 0.45 0.04 0.44 0.51 -0.38 c0.83 -0.63 1.88 -0.85 3.65 -0.78 1.29 0.04 1.68 0.12 2.39 0.44 1.63 0.75 2.81 2.24 3.43 4.29 0.38 1.25 0.38 4.91 0 6.15 -0.59 1.95 -1.82 3.56 -3.22 4.25 -1.76 0.83 -4.26 0.85 -5.89 0 l-0.94 -0.50 0 2.86 0 2.84 -1.68 0 -1.68 0 0 -10.03z m8.07 2.02 c1.49 -0.76 2.26 -2.46 2.15 -4.79 -0.13 -2.86 -1.67 -4.66 -3.79 -4.45 -2.01 0.19 -3.18 2.21 -3.03 5.17 0.12 2.08 0.82 3.40 2.20 4.09 0.97 0.48 1.48 0.48 2.48 -0.01z"/>
  <path d="M21.09 100.49 l0 -1.01 -1.13 -0.04 -1.14 -0.04 -0.04 -8.23 -0.03 -8.25 22.71 0 22.71 0 0 8.28 0 8.28 -0.95 0 -0.95 0 0 1.03 0 1.03 -4.32 0 -4.32 0 0 -1.03 0 -1.03 -1.10 0 -1.10 0 0 1.03 0 1.03 -4.32 0 -4.32 0 0 -1.03 0 -1.03 -1.25 0 -1.25 0 0 1.03 0 1.03 -4.32 0 -4.32 0 0 -1.03 0 -1.03 -0.95 0 -0.95 0 0 1.03 0 1.03 -4.32 0 -4.32 0 0 -1.03z m7.32 -2.62 c-0.53 -1.04 -1 -1.26 -2.93 -1.30 -1.57 -0.04 -1.71 -0.03 -2.20 0.29 -0.48 0.32 -1.17 1.19 -1.17 1.45 0 0.07 1.48 0.13 3.30 0.13 l3.30 0 -0.29 -0.57z m10.84 0.44 c0 -0.26 -0.69 -1.13 -1.16 -1.44 -0.44 -0.29 -0.67 -0.34 -2.05 -0.34 -1.86 0 -2.50 0.28 -3.06 1.29 l-0.34 0.62 3.30 0 c1.82 0 3.31 -0.06 3.31 -0.13z m10.81 -0.48 c-0.62 -1.10 -0.91 -1.22 -2.97 -1.22 -2.07 0 -2.36 0.12 -2.97 1.22 l-0.34 0.62 3.31 0 3.31 0 -0.34 -0.62z m11.02 0.48 c0 -0.22 -0.66 -1.08 -1.07 -1.39 -0.35 -0.26 -0.67 -0.32 -2.05 -0.35 -1.52 -0.04 -1.68 -0.03 -2.15 0.29 -0.48 0.32 -1.17 1.19 -1.17 1.45 0 0.07 1.45 0.13 3.22 0.13 1.77 0 3.22 -0.06 3.22 -0.13z"/>
  <path d="M70.31 99.79 c-1.25 -0.32 -2.09 -0.85 -3.05 -1.85 -0.85 -0.91 -1.35 -1.86 -1.73 -3.31 -0.35 -1.36 -0.22 -4.54 0.23 -5.82 0.67 -1.93 1.88 -3.30 3.60 -4.10 0.82 -0.40 0.97 -0.41 3.06 -0.41 2.15 0 2.21 0.01 3.16 0.45 2.40 1.14 3.78 3.72 3.79 7.06 l0 1.20 -5.29 0 -5.29 0 0.10 0.48 c0.04 0.25 0.29 0.88 0.53 1.39 0.70 1.46 2.21 2.39 3.49 2.15 1.27 -0.23 2.30 -1.14 2.75 -2.42 l0.26 -0.73 1.67 0 1.66 0 -0.06 0.92 c-0.15 2.34 -2.05 4.44 -4.51 5 -1.30 0.29 -3.18 0.28 -4.39 -0.03z m5.17 -10.21 c-0.32 -0.97 -1.36 -2.05 -2.24 -2.34 -1.55 -0.51 -3.21 0.50 -4.03 2.46 l-0.22 0.54 3.35 0 3.37 0 -0.23 -0.66z"/>
  <path d="M109.06 99.89 c-2.86 -0.47 -4.48 -2.20 -4.72 -5 l-0.09 -1 1.70 0 1.68 0 0.10 0.57 c0.40 2.39 3.43 3.47 5.46 1.96 0.25 -0.19 0.57 -0.54 0.69 -0.78 0.21 -0.40 0.19 -0.44 -0.15 -0.85 -0.48 -0.57 -1.14 -0.82 -3.16 -1.20 -4.79 -0.89 -6.06 -2.07 -5.80 -5.27 0.04 -0.56 0.22 -1.26 0.38 -1.57 0.41 -0.82 1.44 -1.71 2.45 -2.11 0.79 -0.32 1.07 -0.35 3.28 -0.35 2.21 0 2.49 0.03 3.30 0.35 1.73 0.70 2.71 2.08 2.94 4.16 l0.10 0.83 -1.77 0 -1.76 0 -0.09 -0.47 c-0.16 -0.83 -0.63 -1.42 -1.45 -1.80 -1.17 -0.56 -2.43 -0.44 -3.33 0.31 -0.67 0.59 -0.81 0.89 -0.51 1.33 0.34 0.51 1.29 0.89 3.27 1.30 4.82 0.98 5.89 1.85 5.89 4.75 0 2.01 -0.73 3.30 -2.37 4.12 -1.55 0.78 -3.94 1.05 -6.05 0.70z"/>
  <path d="M79.54 92.07 l0 -7.54 1.61 0 1.61 0 0 0.51 0 0.51 0.60 -0.42 c1.01 -0.73 1.85 -0.94 3.69 -0.86 1.44 0.04 1.74 0.10 2.42 0.45 0.42 0.22 0.91 0.62 1.08 0.89 l0.32 0.48 0.48 -0.50 c0.28 -0.26 0.83 -0.66 1.26 -0.88 0.66 -0.34 1 -0.40 2.39 -0.45 1.95 -0.07 2.86 0.16 3.75 0.97 1.33 1.20 1.44 1.82 1.44 8.75 l0 5.64 -1.68 0 -1.68 0 0 -4.75 c0 -4.86 -0.10 -6.04 -0.56 -6.68 -0.40 -0.56 -1.26 -0.92 -1.86 -0.82 -0.79 0.15 -1.67 0.94 -2.18 1.92 l-0.45 0.88 -0.04 4.73 -0.04 4.72 -1.67 0 -1.66 0 -0.06 -5.08 -0.04 -5.10 -0.37 -0.72 c-0.47 -0.94 -1.01 -1.33 -1.82 -1.33 -0.81 0 -1.71 0.59 -2.29 1.49 -0.75 1.17 -0.88 2.20 -0.88 6.69 l0 4.04 -1.68 0 -1.68 0 0 -7.54z"/>
  <path d="M28.74 77.42 c-0.44 -0.10 -1.33 -0.45 -1.99 -0.79 -2.14 -1.05 -3.71 -3.09 -4.44 -5.73 -0.21 -0.76 -0.26 -1.52 -0.26 -3.81 0 -2.58 0.03 -2.96 0.34 -3.96 1.07 -3.40 3.22 -5.55 6.33 -6.31 1.23 -0.31 4.69 -0.26 5.79 0.07 1.42 0.42 2.77 1.22 3.63 2.12 1.25 1.30 2.15 3.35 2.15 4.88 l0 0.72 -2.14 -0.04 -2.12 -0.04 -0.32 -0.97 c-0.59 -1.73 -1.41 -2.61 -2.94 -3.12 -0.85 -0.29 -1.44 -0.29 -2.37 -0.01 -1.74 0.51 -2.83 1.70 -3.53 3.81 -0.31 0.97 -0.38 1.45 -0.38 2.78 -0.03 3.24 1.07 5.43 3.21 6.45 2.20 1.05 4.70 0.10 5.80 -2.20 0.22 -0.48 0.41 -1.01 0.41 -1.17 0 -0.16 0.04 -0.44 0.09 -0.62 0.09 -0.34 0.13 -0.34 2.27 -0.34 l2.18 0 0 0.88 c0 1.68 -1.01 3.96 -2.37 5.29 -0.97 0.95 -2.48 1.79 -3.79 2.11 -1.16 0.26 -4.42 0.28 -5.52 0z"/>
  <path d="M69.43 77.42 c-2.55 -0.63 -4.50 -2.18 -5.65 -4.54 -0.78 -1.60 -1.08 -3.16 -1.08 -5.64 0 -5.51 2.14 -8.98 6.30 -10.28 1.45 -0.44 4.70 -0.48 6.08 -0.06 2.34 0.70 4.06 2.17 5.13 4.38 0.81 1.68 1.10 3.11 1.10 5.30 l0 1.68 -7.10 0 -7.09 0 0.07 0.48 c0.31 1.68 0.91 2.97 1.85 3.87 0.91 0.88 1.86 1.27 3.13 1.27 0.91 0.01 1.17 -0.04 2.05 -0.50 1.42 -0.73 2.09 -1.68 2.64 -3.76 0.04 -0.15 0.62 -0.19 2.26 -0.19 l2.20 0 0 0.70 c0 1.32 -0.72 3.15 -1.76 4.45 -1.11 1.41 -2.58 2.33 -4.47 2.83 -1.08 0.28 -4.48 0.28 -5.64 0z m7.15 -13.36 c-0.42 -1.55 -1.29 -2.67 -2.58 -3.30 -0.78 -0.38 -1.16 -0.48 -1.86 -0.48 -2.15 0 -3.96 1.52 -4.69 4 l-0.09 0.32 4.69 0 4.67 0 -0.15 -0.54z"/>
  <path d="M115.52 77.48 c-2.65 -0.63 -4.95 -3 -5.73 -5.92 -0.66 -2.49 -0.62 -6.62 0.12 -9.11 1.20 -4.15 4.95 -6.43 9.39 -5.76 1.46 0.22 2.52 0.67 3.37 1.46 l0.67 0.63 0 -0.91 0 -0.89 2.05 0 2.05 0 0 10.11 0 10.11 -2.05 0 -2.05 0 0 -0.82 0 -0.82 -0.62 0.53 c-0.72 0.63 -1.60 1.07 -2.65 1.35 -0.86 0.23 -3.65 0.25 -4.56 0.04z m4.50 -3.97 c0.95 -0.41 2.18 -1.77 2.59 -2.86 1 -2.65 0.94 -5.38 -0.15 -7.62 -0.89 -1.80 -2.75 -2.99 -4.37 -2.75 -2.72 0.40 -4.34 2.93 -4.34 6.81 0.01 3.60 1.49 6.12 3.97 6.72 0.69 0.18 1.38 0.07 2.29 -0.31z"/>
  <path d="M40.58 67.09 l0 -10.11 2.12 0 2.12 0 0 10.11 0 10.11 -2.12 0 -2.12 0 0 -10.11z"/>
  <path d="M45.85 67.09 l0 -10.11 2.12 0 2.12 0 0 0.94 0 0.95 0.56 -0.50 c0.73 -0.67 1.98 -1.32 2.96 -1.54 0.50 -0.10 1.55 -0.16 2.71 -0.12 1.70 0.04 1.99 0.09 2.75 0.44 0.47 0.22 1.03 0.54 1.25 0.70 0.69 0.54 1.48 1.76 1.82 2.75 0.32 0.95 0.32 1.17 0.38 8.79 l0.04 7.79 -2.12 0 -2.14 0 0 -6.25 c0 -6.52 -0.09 -7.69 -0.62 -8.75 -0.40 -0.81 -0.67 -1.08 -1.36 -1.44 -1.71 -0.88 -4.01 0.18 -5.11 2.34 -0.82 1.63 -0.86 1.98 -0.92 8.28 l-0.06 5.82 -2.20 0 -2.18 0 0 -10.11z"/>
  <path d="M81.74 67.09 l0 -10.11 2.05 0 2.05 0 0 0.89 0 0.89 0.60 -0.54 c0.34 -0.29 1.04 -0.75 1.58 -1.01 0.95 -0.45 1 -0.45 3.24 -0.45 2.27 0 2.27 0 3.25 0.48 0.91 0.44 1.44 0.91 2.05 1.79 l0.26 0.37 0.47 -0.53 c0.85 -0.92 1.86 -1.58 2.92 -1.90 0.88 -0.26 1.29 -0.31 2.96 -0.25 1.82 0.06 1.99 0.09 2.92 0.53 1.48 0.72 2.33 1.83 2.83 3.76 0.19 0.73 0.22 2.09 0.22 8.53 l0 7.66 -2.12 0 -2.12 0 0 -6.42 c0 -3.98 -0.06 -6.75 -0.16 -7.29 -0.45 -2.52 -2.24 -3.63 -4.22 -2.62 -1.25 0.62 -2.14 2.09 -2.56 4.20 -0.19 0.91 -0.23 2.21 -0.23 6.64 l0 5.49 -2.11 0 -2.11 0 -0.06 -6.77 c-0.07 -7.31 -0.10 -7.60 -0.89 -8.77 -0.45 -0.67 -1.45 -1.20 -2.24 -1.19 -1.32 0.01 -2.70 1.07 -3.35 2.58 -0.81 1.83 -0.85 2.24 -0.91 8.41 l-0.07 5.74 -2.11 0 -2.11 0 0 -10.11z"/>
  <path d="M40.61 53.73 l0.04 -2.24 2.09 -0.04 2.08 -0.04 0 2.29 0 2.27 -2.12 0 -2.14 0 0.04 -2.23z"/>
 </g>
</svg>