<svg width="18" height="18" viewBox="0 0 18 18" fill="none" xmlns="http://www.w3.org/2000/svg">
<g clip-path="url(#clip0_43_14)">
<path d="M1.37956 9.6109C1.06296 8.84655 0.900002 8.02732 0.900002 7.19999C0.900002 6.37267 1.06296 5.55344 1.37956 4.78909C1.69617 4.02474 2.16022 3.33023 2.74523 2.74522C3.33024 2.16021 4.02474 1.69616 4.7891 1.37955C5.55345 1.06295 6.37267 0.899994 7.2 0.899994C8.02733 0.899994 8.84656 1.06295 9.61091 1.37955C10.3753 1.69616 11.0698 2.16021 11.6548 2.74522C12.2398 3.33023 12.7038 4.02474 13.0204 4.78909C13.337 5.55344 13.5 6.37267 13.5 7.19999C13.5 8.02732 13.337 8.84655 13.0204 9.6109C12.7038 10.3753 12.2398 11.0698 11.6548 11.6548C11.0698 12.2398 10.3753 12.7038 9.61091 13.0204C8.84656 13.337 8.02733 13.5 7.2 13.5C6.37267 13.5 5.55345 13.337 4.7891 13.0204C4.02474 12.7038 3.33024 12.2398 2.74523 11.6548C2.16022 11.0698 1.69617 10.3753 1.37956 9.6109Z" stroke="#66625D" stroke-width="1.75" stroke-linecap="round" stroke-linejoin="round"/>
<path d="M17.1 17.1L11.7 11.7" stroke="#66625D" stroke-width="1.75" stroke-linecap="round" stroke-linejoin="round"/>
</g>
<defs>
<clipPath id="clip0_43_14">
<rect width="18" height="18" fill="white"/>
</clipPath>
</defs>
</svg>
